<svg fill="currentColor" version="1.0" xmlns="http://www.w3.org/2000/svg"
 viewBox="0 0 512 512">
<g transform="translate(0,512) scale(0.100000,-0.100000)">
<path d="M830 5104 c-42 -18 -86 -58 -108 -99 -15 -27 -17 -109 -20 -871 l-3
-842 -92 -4 c-112 -5 -179 -32 -235 -92 -81 -88 -77 -39 -77 -946 0 -801 0
-805 21 -851 54 -116 140 -169 291 -177 l92 -5 3 -536 c3 -588 1 -562 65 -623
65 -62 -61 -58 1793 -58 1854 0 1728 -4 1793 58 64 61 62 35 65 623 l3 536 92
5 c151 8 237 61 291 177 21 46 21 50 21 851 0 907 4 858 -77 946 -56 60 -123
87 -235 92 l-93 4 -1 302 c-1 165 -4 312 -8 326 -8 30 -994 1160 -1033 1184
-24 15 -138 16 -1270 16 -1088 -1 -1247 -3 -1278 -16z m2400 -714 l0 -530 29
-32 29 -33 466 -3 466 -3 0 -249 0 -250 -1660 0 -1660 0 0 815 0 815 1165 0
1165 0 0 -530z m-1620 -1310 c119 -15 220 -46 220 -68 0 -20 -56 -242 -63
-248 -2 -3 -40 5 -83 18 -111 31 -281 31 -374 -1 -200 -68 -300 -222 -301
-463 0 -254 107 -410 325 -473 98 -29 276 -20 412 20 20 6 22 -1 43 -107 12
-62 24 -121 27 -130 14 -49 -281 -96 -485 -77 -130 12 -200 31 -306 83 -108
54 -188 122 -250 216 -158 238 -167 604 -20 865 152 271 479 410 855 365z
m1120 -5 c100 -15 220 -51 220 -66 0 -4 -16 -67 -36 -138 l-37 -130 -50 20
c-113 45 -276 62 -362 38 -22 -6 -56 -28 -77 -49 -33 -32 -38 -44 -38 -83 0
-80 49 -119 248 -201 142 -58 184 -79 250 -128 171 -127 213 -366 98 -563 -94
-160 -343 -249 -625 -225 -159 14 -331 64 -331 96 0 8 14 71 31 140 26 103 35
125 48 120 9 -3 54 -19 101 -35 98 -34 243 -55 315 -45 131 17 201 97 175 195
-16 58 -80 108 -206 158 -304 122 -415 223 -443 402 -53 333 280 562 719 494z
m760 -27 c21 -47 239 -830 275 -983 20 -88 38 -162 40 -164 4 -4 16 38 49 181
28 119 97 363 209 738 l73 245 177 3 c138 2 177 0 177 -10 0 -7 -111 -345
-247 -750 l-248 -738 -200 0 -200 0 -238 743 c-130 408 -237 745 -237 750 0 4
81 7 180 7 178 0 181 0 190 -22z m730 -2308 l0 -480 -1660 0 -1660 0 0 480 0
480 1660 0 1660 0 0 -480z"/>
</g>
</svg>
