<svg clip-rule="evenodd" fill-rule="evenodd" stroke-linejoin="round" stroke-miterlimit="1.414" viewBox="0 0 1084 1084" xmlns="http://www.w3.org/2000/svg"><g fill-rule="nonzero"><path d="M456.653 5.851c-74.011 12.31-146.803 41.305-217.064 86.992C147.817 151.575 69.811 252.08 32.023 358.955c-59.577 169.074-35.22 350.91 66.354 495 88.552 125.582 228.524 210.199 376.312 227.27l24.924 2.775.617-32.036c.098-17.554 1.981-41.244 3.795-52.645 4.076-24.554.605-29.84-21.27-29.964-42.877-.242-105.33-20.344-148.052-48.235-26.157-16.825-27.9-18.151-46.575-42.834-20.85-26.89-39.025-62.981-49.773-96.836-8.17-25.502-9.832-41.31-9.546-92.22l-.093-61.445 39.383-1.094c98.46-2.956 181.415 28.234 234.46 87.783l20 22.496 5.331-14.454c25.31-66.129 67.16-116.804 117.178-141.977 46.947-23.435 81.995-31.576 147.199-33.842l59.954-2.295 2.994 12.306c1.713 6.593 1.548 35.997.07 65.394-4.397 82.047-26.135 135.469-77.199 190.92-25.97 27.942-64.16 50.11-113.247 65.194-16.655 5.173-33.753 11.22-37.263 12.956-15.794 7.811-37.793 107.753-35.036 162.19l1.153 28.535 17.508-1.218c42.018-2.835 115.64-23.925 161.268-46.051 51.334-25.605 117.217-70.878 149.78-104.05 164.572-167.165 207.476-406.117 110.661-618.645-24.206-52.803-77.176-125.518-124.614-170.552-45.263-42.827-129.432-91.58-197.559-114.347C634.312 1.587 535.041-6.873 456.653 5.851z"/><path d="M732.217 644.23c-32.425 8.595-67.535 27.708-82.506 44.74-17.611 19.65-37.1 62.113-41.193 89.74l-3.62 21.485 17.077-2.537c28.466-4.667 78.494-31.596 96.11-52.125 19.377-22.274 40.616-64.726 44.694-89.72 3.18-21.048 3.615-20.607-30.562-11.583zM323.132 721.8c-13.15 4.315 11.417 70.726 38.36 103.355 19.12 23.37 77.153 51.785 107.778 51.958 14.438.081 12.784-17.045-4.945-54.45-19.459-40.926-40.76-65.624-69.557-79.83-26.614-13.318-63.306-24.058-71.636-21.033z"/></g></svg>