<svg viewBox="0 0 548.291 548.291" xmlns="http://www.w3.org/2000/svg"><path d="m486.206 196.121h-13.166v-63.525c0-.396-.062-.795-.109-1.2-.021-2.52-.829-4.997-2.556-6.96l-105.718-120.759c-.033-.031-.064-.042-.085-.075-.63-.704-1.364-1.29-2.143-1.796-.229-.154-.461-.283-.702-.419-.672-.365-1.387-.672-2.121-.893-.2-.052-.379-.134-.577-.186-.799-.19-1.628-.308-2.467-.308h-259.805c-11.863 0-21.501 9.649-21.501 21.502v174.613h-13.164c-16.971 0-30.732 13.756-30.732 30.733v159.812c0 16.961 13.761 30.731 30.732 30.731h13.164v109.399c0 11.854 9.638 21.501 21.501 21.501h354.776c11.853 0 21.501-9.647 21.501-21.501v-109.398h13.166c16.966 0 30.729-13.764 30.729-30.731v-159.807c.001-16.982-13.753-30.733-30.723-30.733zm-389.449-174.619h249.054v110.006c0 5.94 4.817 10.751 10.751 10.751h94.972v53.861h-354.777zm217.819 293.159c-21.124-7.359-34.908-19.045-34.908-37.544 0-21.698 18.11-38.297 48.116-38.297 14.331 0 24.903 3.014 32.442 6.413l-6.411 23.2c-5.091-2.446-14.146-6.037-26.598-6.037s-18.488 5.662-18.488 12.266c0 8.115 7.171 11.696 23.58 17.921 22.446 8.305 33.013 20 33.013 37.921 0 21.323-16.415 39.435-51.318 39.435-14.524 0-28.861-3.769-36.031-7.737l5.843-23.77c7.738 3.958 19.627 7.927 31.885 7.927 13.218 0 20.188-5.47 20.188-13.774.005-7.918-6.031-12.455-21.313-17.924zm-48.659 29.239v24.157h-79.439v-127.175h28.877v103.018zm-171.68 24.157h-32.826l36.788-64.353-35.473-62.827h33.021l11.125 23.21c3.774 7.736 6.606 13.954 9.628 21.135h.367c3.027-8.115 5.477-13.775 8.675-21.135l10.756-23.21h32.827l-35.848 62.066 37.74 65.103h-33.202l-11.515-23.022c-4.709-8.855-7.73-15.465-11.316-22.824h-.375c-2.645 7.359-5.845 13.969-9.811 22.824zm357.297 152.911h-354.777v-103.576h354.776v103.576zm.194-152.911-11.512-23.022c-4.715-8.863-7.733-15.465-11.319-22.825h-.366c-2.646 7.36-5.858 13.962-9.827 22.825l-10.551 23.022h-32.836l36.788-64.353-35.471-62.827h33.02l11.139 23.21c3.77 7.736 6.593 13.954 9.618 21.135h.377c3.013-8.115 5.459-13.775 8.671-21.135l10.752-23.21h32.835l-35.849 62.066 37.733 65.103h-33.202z"/></svg>