<svg clip-rule="evenodd" fill="#22952f" fill-rule="evenodd" stroke-linejoin="round" stroke-miterlimit="1.41421" viewBox="0 0 1084 1084" xmlns="http://www.w3.org/2000/svg"><g transform="matrix(.379309 .00213256 .00213256 -.379309 -254.624 1229.588)"><path d="m1888 3045c-169-29-335-96-495-201-209-135-386-365-471-609-134-386-76-800 158-1127 204-285 525-476 863-513l57-6 1 73c0 40 4 94 8 120 9 56 1 68-49 68-98 0-241 45-339 108-60 38-64 41-107 97-48 61-90 143-115 220-19 58-23 94-23 210l-1 140 90 3c225 8 415-62 537-197l46-51 12 33c57 151 152 267 266 325 107 54 187 73 336 79l137 6 7-28c4-15 4-82 1-149-9-187-58-309-174-436-59-64-146-115-258-150-38-12-77-26-85-30-36-18-85-246-78-370l3-65 40 3c96 7 264 56 368 107 117 59 267 163 341 239 374 383 469 928 245 1411-56 120-178 285-287 387-104 97-297 207-453 258-175 57-402 75-581 45z"/><path d="m2526 1594c-74-20-154-64-188-103-40-45-84-142-93-205l-8-49 39 6c65 11 179 73 219 120 44 51 92 148 101 205 7 48 8 47-70 26z"/><path d="m1592 1412c-30-10 27-161 89-235 44-53 177-117 247-117 33 0 29 39-12 124-45 93-94 149-160 181-61 30-145 54-164 47z"/></g></svg>
