<svg clip-rule="evenodd" fill="#22952f" fill-rule="evenodd" stroke-linejoin="round" stroke-miterlimit="1.414" viewBox="0 0 1084 1084" xmlns="http://www.w3.org/2000/svg"><path d="M468.005 78.618c-64.165 10.64-127.273 35.7-188.187 75.186-79.563 50.76-147.191 137.624-179.953 229.995-51.65 146.127-30.533 303.285 57.528 427.818 76.77 108.538 198.122 181.67 326.25 196.426l21.607 2.397.535-27.687c.085-15.173 1.718-35.647 3.29-45.5 3.534-21.222.525-25.791-18.44-25.898-37.173-.209-91.318-17.583-128.356-41.688-22.678-14.542-24.188-15.688-40.38-37.021-18.076-23.24-33.832-54.433-43.15-83.694-7.084-22.04-8.524-35.704-8.277-79.703l-.08-53.106 34.143-.946c85.362-2.554 157.282 24.402 203.27 75.87l17.339 19.442 4.622-12.492c21.942-57.154 58.224-100.95 101.59-122.708 40.7-20.254 71.086-27.29 127.615-29.249l51.979-1.983 2.595 10.635c1.485 5.698 1.342 31.112.062 56.52-3.813 70.911-22.66 117.082-66.93 165.007-22.516 24.15-55.624 43.31-98.182 56.346-14.439 4.471-29.262 9.698-32.305 11.198-13.693 6.751-32.766 93.129-30.375 140.178l1 24.662 15.178-1.053c36.429-2.45 100.257-20.678 139.814-39.801 44.505-22.13 101.623-61.258 129.854-89.928 142.678-144.478 179.875-350.998 95.94-534.682-20.986-45.637-66.91-108.483-108.037-147.405-39.24-37.015-112.213-79.15-171.276-98.828-66.258-21.994-152.323-29.305-220.283-18.308z"/><path d="M706.91 630.356c-28.112 7.429-58.55 23.948-71.53 38.668-15.268 16.984-32.165 53.683-35.713 77.56l-3.139 18.57 14.806-2.193c24.679-4.034 68.052-27.308 83.325-45.05 16.798-19.251 35.212-55.942 38.747-77.543 2.758-18.192 3.135-17.81-26.496-10.012zm-354.663 67.043c-11.4 3.729 9.898 61.126 33.257 89.327 16.577 20.197 66.889 44.757 93.44 44.906 12.517.07 11.083-14.731-4.287-47.06-16.87-35.372-35.337-56.717-60.303-68.996-23.074-11.51-54.885-20.792-62.107-18.177z"/></svg>