<?xml version="1.0" encoding="iso-8859-1"?>
<!-- Generator: Adobe Illustrator 16.0.0, SVG Export Plug-In . SVG Version: 6.00 Build 0)  -->
<!DOCTYPE svg PUBLIC "-//W3C//DTD SVG 1.1//EN" "http://www.w3.org/Graphics/SVG/1.1/DTD/svg11.dtd">
<svg version="1.1" id="Capa_1" xmlns="http://www.w3.org/2000/svg" xmlns:xlink="http://www.w3.org/1999/xlink" x="0px" y="0px"
	 width="583.438px" height="583.438px" viewBox="0 0 583.438 583.438" style="enable-background:new 0 0 583.438 583.438;"
	 xml:space="preserve">
<g>
	<g>
		<path d="M291.719,0C130.606,0,0,130.606,0,291.719s130.606,291.719,291.719,291.719s291.719-130.606,291.719-291.719
			S452.831,0,291.719,0z M291.719,531.356c-132.14,0-239.638-107.501-239.638-239.638S159.579,52.081,291.719,52.081
			c132.14,0,239.638,107.498,239.638,239.638C531.356,423.858,423.858,531.356,291.719,531.356z"/>
		<path d="M167.96,221.439h-60.019c-5.93,15.457-9.982,31.827-11.836,48.859h66.91C163.78,253.585,165.451,237.229,167.96,221.439z"
			/>
		<path d="M130.824,178.6h46.423c5.116-18.28,11.475-35.34,19.049-50.673c1.977-4.002,4.042-7.8,6.145-11.506
			C173.814,131.062,149.233,152.495,130.824,178.6z"/>
		<path d="M415.478,361.998h60.019c5.931-15.456,9.981-31.827,11.833-48.859h-66.907
			C419.657,329.853,417.986,346.208,415.478,361.998z"/>
		<path d="M420.422,270.299h66.91c-1.851-17.032-5.902-33.403-11.833-48.859H415.48
			C417.986,237.229,419.657,253.585,420.422,270.299z"/>
		<path d="M387.142,455.508c-1.977,4.003-4.042,7.801-6.145,11.506c28.63-14.639,53.208-36.071,71.616-62.176H406.19
			C401.074,423.115,394.715,440.178,387.142,455.508z"/>
		<path d="M406.188,178.6h46.423c-18.409-26.104-42.986-47.537-71.616-62.176c2.103,3.706,4.168,7.503,6.145,11.505
			C394.715,143.26,401.074,160.322,406.188,178.6z"/>
		<path d="M177.25,404.838h-46.427c18.409,26.104,42.987,47.537,71.617,62.176c-2.103-3.705-4.168-7.503-6.145-11.506
			C188.722,440.178,182.363,423.115,177.25,404.838z"/>
		<path d="M163.015,313.139h-66.91c1.852,17.032,5.903,33.403,11.833,48.859h60.019C165.451,346.208,163.78,329.853,163.015,313.139
			z"/>
		<path d="M313.139,102.032V178.6h48.428C349.339,140.983,331.648,114.089,313.139,102.032z"/>
		<path d="M221.871,178.6h48.428v-76.567C251.789,114.089,234.099,140.983,221.871,178.6z"/>
		<path d="M211.311,361.998h58.988v-48.859h-64.419C206.733,330.395,208.606,346.734,211.311,361.998z"/>
		<path d="M205.879,270.299h64.419v-48.859h-58.988C208.606,236.703,206.733,253.043,205.879,270.299z"/>
		<path d="M313.139,221.439v48.859h64.419c-0.854-17.255-2.729-33.596-5.432-48.859H313.139z"/>
		<path d="M313.139,361.998h58.987c2.702-15.261,4.578-31.601,5.432-48.859h-64.419V361.998z"/>
		<path d="M270.299,481.405v-76.567h-48.428C234.099,442.454,251.789,469.349,270.299,481.405z"/>
		<path d="M313.139,481.405c18.51-12.054,36.2-38.948,48.428-76.567h-48.428V481.405z"/>
	</g>
</g>
<g>
</g>
<g>
</g>
<g>
</g>
<g>
</g>
<g>
</g>
<g>
</g>
<g>
</g>
<g>
</g>
<g>
</g>
<g>
</g>
<g>
</g>
<g>
</g>
<g>
</g>
<g>
</g>
<g>
</g>
</svg>
